<svg width="900.2" height="261.8" xmlns="http://www.w3.org/2000/svg" viewBox="8.0 9.5 900.2 261.8" role="img" aria-label="Baya Weaver Resorts"><title>Baya Weaver Resorts</title><defs><linearGradient id="g1" gradientUnits="userSpaceOnUse" x1="64.2" y1="1.9" x2="91.5" y2="74.9"><stop offset="0" stop-color="#b9822a"/><stop offset=".5" stop-color="#deac51"/><stop offset="1" stop-color="#ffd67c"/></linearGradient><linearGradient id="g2" gradientUnits="userSpaceOnUse" x1="148.6" y1="77.1" x2="153.4" y2="32.1"><stop offset="0" stop-color="#b57b25"/><stop offset=".5" stop-color="#c89641"/><stop offset="1" stop-color="#debc73"/></linearGradient><linearGradient id="g3" gradientUnits="userSpaceOnUse" x1="273.4" y1="74.8" x2="262.7" y2="27.3"><stop offset="0" stop-color="#c89d4f"/><stop offset=".5" stop-color="#d5a54d"/><stop offset="1" stop-color="#deaf59"/></linearGradient><linearGradient id="g4" gradientUnits="userSpaceOnUse" x1="114.6" y1="57.0" x2="179.9" y2="145.5"><stop offset="0" stop-color="#925a08"/><stop offset=".5" stop-color="#d8a74d"/><stop offset="1" stop-color="#ffe48e"/></linearGradient><linearGradient id="g5" gradientUnits="userSpaceOnUse" x1="72.7" y1="126.8" x2="136.9" y2="131.1"><stop offset="0" stop-color="#b37a21"/><stop offset=".5" stop-color="#e5b65d"/><stop offset="1" stop-color="#ffe293"/></linearGradient><linearGradient id="g6" gradientUnits="userSpaceOnUse" x1="222.7" y1="77.2" x2="244.0" y2="108.5"><stop offset="0" stop-color="#916520"/><stop offset=".5" stop-color="#c49640"/><stop offset="1" stop-color="#e5b75d"/></linearGradient><linearGradient id="g9" gradientUnits="userSpaceOnUse" x1="184.1" y1="129.8" x2="216.5" y2="161.3"><stop offset="0" stop-color="#a47b34"/><stop offset=".5" stop-color="#b08131"/><stop offset="1" stop-color="#bb8b39"/></linearGradient><linearGradient id="g18" gradientUnits="userSpaceOnUse" x1="200.0" y1="168.9" x2="122.0" y2="210.0"><stop offset="0" stop-color="#ae7822"/><stop offset=".5" stop-color="#d9aa55"/><stop offset="1" stop-color="#ffe291"/></linearGradient><linearGradient id="g19" gradientUnits="userSpaceOnUse" x1="131.2" y1="215.3" x2="87.4" y2="209.0"><stop offset="0" stop-color="#be9243"/><stop offset=".5" stop-color="#ca9f4f"/><stop offset="1" stop-color="#dfb767"/></linearGradient><linearGradient id="g7" gradientUnits="userSpaceOnUse" x1="277.2" y1="176.2" x2="329.5" y2="111.7"><stop offset="0" stop-color="#96641c"/><stop offset=".5" stop-color="#c7963d"/><stop offset="1" stop-color="#e7b55d"/></linearGradient><linearGradient id="g8" gradientUnits="userSpaceOnUse" x1="574.2" y1="173.1" x2="569.1" y2="106.3"><stop offset="0" stop-color="#b38235"/><stop offset=".5" stop-color="#d5a854"/><stop offset="1" stop-color="#f3c874"/></linearGradient><linearGradient id="g10" gradientUnits="userSpaceOnUse" x1="348.6" y1="172.9" x2="394.4" y2="149.9"><stop offset="0" stop-color="#bd9350"/><stop offset=".5" stop-color="#ce9a43"/><stop offset="1" stop-color="#d3a14b"/></linearGradient><linearGradient id="g11" gradientUnits="userSpaceOnUse" x1="410.9" y1="169.7" x2="438.2" y2="122.2"><stop offset="0" stop-color="#ca9746"/><stop offset=".5" stop-color="#d2a24d"/><stop offset="1" stop-color="#dbb064"/></linearGradient><linearGradient id="g12" gradientUnits="userSpaceOnUse" x1="449.6" y1="154.8" x2="504.3" y2="160.1"><stop offset="0" stop-color="#b88a44"/><stop offset=".5" stop-color="#c99742"/><stop offset="1" stop-color="#d8a650"/></linearGradient><linearGradient id="g13" gradientUnits="userSpaceOnUse" x1="669.4" y1="180.7" x2="635.6" y2="131.3"><stop offset="0" stop-color="#a47837"/><stop offset=".5" stop-color="#d1a24f"/><stop offset="1" stop-color="#ebba63"/></linearGradient><linearGradient id="g14" gradientUnits="userSpaceOnUse" x1="705.8" y1="183.5" x2="725.4" y2="136.0"><stop offset="0" stop-color="#c19750"/><stop offset=".5" stop-color="#d3a14b"/><stop offset="1" stop-color="#dfac57"/></linearGradient><linearGradient id="g15" gradientUnits="userSpaceOnUse" x1="760.8" y1="175.0" x2="759.8" y2="127.5"><stop offset="0" stop-color="#ab7729"/><stop offset=".5" stop-color="#cb9a44"/><stop offset="1" stop-color="#e5b766"/></linearGradient><linearGradient id="g16" gradientUnits="userSpaceOnUse" x1="822.0" y1="181.5" x2="807.5" y2="127.5"><stop offset="0" stop-color="#b3863f"/><stop offset=".5" stop-color="#c99946"/><stop offset="1" stop-color="#dbaa58"/></linearGradient><linearGradient id="g17" gradientUnits="userSpaceOnUse" x1="902.5" y1="171.9" x2="851.0" y2="133.7"><stop offset="0" stop-color="#ad7d32"/><stop offset=".5" stop-color="#c7933f"/><stop offset="1" stop-color="#daa756"/></linearGradient></defs><g><path fill="url(#g1)" d="M10.2 12.0 64.2 67.8 135.5 67.5 137.2 66.2 122.0 41.0 115.8 27.0 107.0 15.2Z"/><path fill="url(#g2)" d="M114.8 21.8 142.8 67.0 183.5 84.0 190.0 82.8 131.2 32.5 116.8 21.5Z"/><path fill="url(#g3)" d="M193.8 83.0 271.0 81.5 292.8 55.0 350.2 42.0 410.0 26.0 330.8 31.5 316.8 34.5 290.2 33.0 289.8 35.2 295.5 43.2 291.2 51.8 275.5 25.0 242.0 26.0 234.8 31.0Z"/><path fill="url(#g4)" d="M69.5 73.2 147.2 150.0 152.8 149.2 201.0 130.5 235.2 115.8 233.2 113.0 210.8 104.0 188.0 90.8 143.2 70.8 72.5 71.8Z"/><path fill="url(#g5)" d="M69.0 81.8 69.5 85.5 104.8 154.8 143.0 153.5 142.0 150.5 72.2 82.0Z"/><path fill="url(#g6)" d="M266.2 86.0 208.2 86.5 196.0 88.5 243.0 113.2 261.8 93.5Z"/><path fill="url(#g9)" d="M239.5 119.8 235.0 120.0 150.0 155.2 217.0 167.8Z"/><path fill="url(#g18)" d="M213.5 171.2 149.5 160.2 122.2 234.0 127.2 232.8 208.2 176.8Z"/><path fill="url(#g19)" d="M143.0 160.8 126.5 161.8 123.2 163.5 76.5 258.0 72.8 268.8 77.5 267.0 115.5 240.2 143.8 163.2Z"/></g><g><path fill="url(#g7)" d="M270.3 179.8C269.0 178.9 269.0 180.4 269.0 142.5C268.9 103.2 268.8 106.5 270.5 105.6C271.7 105.0 322.1 105.1 325.0 105.7C340.4 108.9 346.3 124.1 336.2 134.6C332.8 138.2 332.7 137.9 338.2 140.5C341.5 142.0 345.7 146.6 347.3 150.5C349.1 154.9 349.1 162.0 347.3 165.6C344.0 172.4 338.6 176.8 330.9 179.0C326.6 180.3 272.0 181.0 270.3 179.8ZM313.5 172.1C319.8 172.0 322.8 171.2 327.0 168.7C338.4 162.1 335.7 147.2 322.6 144.5C315.9 143.2 317.4 143.2 300.4 143.3C284.3 143.3 283.2 143.3 282.7 144.3C282.3 145.1 282.4 171.0 282.9 171.6C283.4 172.4 297.8 172.6 313.5 172.1ZM314.1 134.7C320.1 133.9 323.0 132.8 325.4 130.3C331.0 124.6 328.1 117.0 319.5 114.6C316.1 113.6 283.8 113.7 283.0 114.7C282.2 115.6 282.2 133.4 283.0 134.3C283.7 135.1 308.7 135.5 314.1 134.7Z"/><path fill="url(#g8)" d="M514.0 106.5 544.5 179.8 547.5 177.8 572.0 129.2 599.0 178.5 601.8 179.8 633.8 107.5 632.2 105.2 625.0 105.2 623.0 107.0 601.8 154.2 576.8 107.0 573.2 105.8 548.0 154.0 528.2 106.2Z"/><path fill="url(#g10)" d="M344.5 178.2 346.8 180.0 352.8 179.8 362.2 166.8 389.8 167.8 399.0 179.5 411.5 178.8 378.0 125.8 374.0 129.2ZM376.2 144.5 384.8 159.2 366.5 160.2 370.2 151.5Z"/><path fill="url(#g11)" d="M394.0 126.5 395.0 130.0 419.0 157.2 419.8 179.2 429.0 179.5 430.2 157.0 455.0 126.8 446.0 126.5 425.8 147.5 406.5 126.0Z"/><path fill="url(#g12)" d="M442.5 178.0 443.5 179.8 451.0 179.5 459.2 166.8 487.2 167.8 495.8 179.5 508.2 179.0 474.8 125.8ZM472.2 144.8 481.2 157.2 480.8 160.0 464.0 159.5Z"/><path fill="url(#g13)" d="M635.0 126.0 633.5 129.8 634.0 179.0 679.2 180.0 680.8 176.8 679.2 172.5 646.5 172.0 647.0 156.5 667.8 156.0 669.5 150.8 668.0 148.8 646.5 148.2 645.5 138.2 647.2 133.5 679.5 133.0 680.0 126.5Z"/><path fill="url(#g14)" d="M682.8 178.2 684.2 180.0 691.0 179.8 699.2 167.0 727.0 168.0 735.5 179.8 746.5 179.8 747.5 177.8 714.5 125.8ZM712.2 144.8 718.8 153.5 720.5 160.0 704.0 159.5Z"/><path fill="url(#g15)" d="M729.8 127.2 761.5 180.0 765.0 178.2 796.0 128.2 793.0 125.8 788.5 125.8 785.8 128.0 764.5 161.8 742.8 126.5Z"/><path fill="url(#g16)" d="M798.8 126.0 798.0 179.0 843.0 179.8 844.2 174.0 842.5 172.5 810.2 172.0 811.0 156.2 832.2 156.0 834.0 152.2 832.0 148.8 810.5 148.2 809.8 136.5 811.0 133.5 842.2 133.2 844.0 131.8 843.8 126.8Z"/><path fill="url(#g17)" d="M850.6 180.0C849.2 179.1 849.2 178.9 849.3 160.0C849.4 139.9 849.4 138.5 849.2 132.8C849.1 125.1 847.4 125.8 867.8 125.8C886.7 125.8 888.5 125.9 891.8 127.1C896.8 129.1 899.2 131.3 900.5 135.5C903.0 143.2 899.4 150.8 891.8 154.1C889.1 155.2 889.2 156.5 892.3 160.0C892.9 160.6 893.8 161.7 894.2 162.4C894.7 163.1 895.5 164.1 896.1 164.8C896.7 165.4 897.8 166.8 898.7 167.9C899.5 169.0 901.3 171.3 902.7 173.0C907.8 179.6 907.6 180.2 900.1 180.2C893.9 180.2 893.5 180.1 889.6 174.6C888.8 173.5 887.5 171.8 886.7 170.8C885.8 169.8 884.4 168.0 883.5 166.8C881.4 163.9 878.9 160.8 875.6 157.2C874.8 156.3 873.9 156.2 867.3 156.3C859.8 156.4 860.7 154.9 860.5 168.1C860.3 181.3 860.9 180.1 855.1 180.2C852.4 180.2 851.0 180.2 850.6 180.0ZM882.0 148.3C886.6 147.4 889.5 144.7 889.7 141.0C889.9 137.6 888.2 135.6 884.0 134.2C881.0 133.2 862.5 133.3 861.4 134.3C859.7 135.8 860.2 147.5 862.0 148.4C862.8 148.8 879.8 148.7 882.0 148.3Z"/></g><g fill="#b89a62"><path d="M282.0 211.5 283.5 214.0 400.2 213.8 401.8 212.2 400.0 210.0 283.8 209.8Z"/><path d="M749.5 211.2 750.0 213.2 753.2 214.0 866.8 214.0 870.8 213.5 871.8 212.2 871.5 211.0 869.8 210.0 865.0 209.8 752.8 210.0Z"/></g><g fill="#cbbf9f"><path d="M525.2 197.2 520.2 199.0 518.0 201.2 517.0 207.2 518.2 210.2 520.0 211.8 528.8 215.2 530.2 218.8 526.8 221.5 518.8 219.8 516.8 222.5 519.8 225.0 526.8 226.0 530.8 225.0 534.2 222.5 535.8 219.5 536.0 216.0 533.0 211.2 524.0 207.5 522.2 205.5 522.2 204.2 525.8 201.8 533.0 203.2 534.8 201.2 534.8 199.5 530.5 197.5Z"/><path d="M440.9 225.0C440.3 224.5 439.0 222.4 436.5 217.6C434.8 214.6 434.4 214.2 433.0 214.2C430.7 214.2 430.7 214.4 430.7 219.7C430.7 223.9 430.7 224.3 430.2 224.8C429.4 225.6 425.5 225.4 425.2 224.4C425.0 223.6 425.0 200.4 425.2 199.6C425.7 197.7 425.5 197.7 432.6 197.8C440.4 197.9 441.7 198.2 444.0 200.5C447.5 203.9 446.5 210.5 442.0 212.6C441.2 213.0 440.5 213.5 440.5 213.7C440.5 214.3 442.7 218.2 444.2 220.2C447.4 224.5 447.3 225.1 443.3 225.3C441.8 225.4 441.4 225.4 440.9 225.0ZM437.9 209.0C441.2 207.5 440.6 203.6 436.9 202.6C434.9 202.1 431.4 202.3 431.0 203.0C430.6 203.8 430.7 208.6 431.1 209.1C431.7 209.7 436.5 209.7 437.9 209.0Z"/><path d="M472.8 224.7C472.5 223.9 472.6 198.9 473.0 198.2C473.3 197.8 473.6 197.8 481.4 197.8C490.8 197.8 490.5 197.7 490.5 200.1C490.5 202.2 490.7 202.1 484.5 202.2C477.9 202.4 478.3 202.2 478.1 205.6C477.9 209.1 477.6 208.9 483.7 209.0C489.4 209.1 489.6 209.2 489.3 211.6C489.1 213.6 489.2 213.6 483.7 213.6C477.8 213.6 478.0 213.5 478.0 217.2C478.0 219.4 478.2 220.4 478.8 220.8C479.0 220.9 481.5 221.0 484.5 220.9C489.8 220.9 489.8 220.9 490.4 221.6C491.1 222.4 491.2 223.8 490.6 224.7C490.0 225.6 473.2 225.6 472.8 224.7Z"/><path d="M573.2 226.0C572.8 225.9 572.1 225.7 571.7 225.5C571.3 225.4 570.7 225.2 570.3 225.2C568.4 225.2 563.7 221.7 562.6 219.4C559.1 211.8 560.7 204.0 566.9 199.9C570.2 197.6 578.2 196.6 581.7 198.1C582.5 198.5 583.4 198.8 583.6 198.8C583.9 198.8 585.4 199.7 586.9 201.0C591.8 204.9 592.8 215.2 588.7 220.3C586.6 222.9 583.2 225.2 581.6 225.2C581.2 225.2 580.6 225.4 580.1 225.7C579.0 226.1 574.7 226.3 573.2 226.0ZM580.2 220.5C589.2 216.2 586.1 202.1 576.1 202.2C570.9 202.2 568.3 204.3 566.9 209.7C565.8 213.4 568.4 219.3 571.4 220.4C572.1 220.6 572.9 220.9 573.2 221.1C574.6 221.9 577.9 221.6 580.2 220.5Z"/><path d="M635.3 225.3C633.4 225.1 632.4 224.6 632.1 223.4C632.0 222.9 631.3 221.8 629.9 219.8C629.5 219.2 628.8 217.8 628.2 216.7C627.1 214.2 626.5 213.8 624.6 214.1C622.8 214.4 622.8 214.6 622.8 219.9C622.8 225.3 622.8 225.2 620.1 225.2C617.3 225.2 617.5 226.5 617.5 211.7C617.5 200.5 617.5 198.8 617.9 198.3C618.5 197.5 629.1 197.5 631.9 198.3C634.7 199.1 635.1 199.3 636.1 200.2C639.8 203.6 638.7 210.3 634.1 212.6C632.2 213.5 632.2 213.9 635.0 217.9C637.6 221.6 638.8 223.6 638.8 224.1C638.8 225.2 638.0 225.4 635.3 225.3ZM630.1 209.1C633.2 207.5 633.4 204.6 630.5 203.1C628.5 202.1 623.6 202.2 623.1 203.2C622.7 203.9 622.6 208.4 622.9 208.9C623.6 209.9 628.2 210.0 630.1 209.1Z"/><path d="M662.5 197.8 661.2 201.0 662.0 202.0 668.5 202.0 670.0 203.5 670.0 223.5 671.0 225.0 674.5 225.2 675.2 203.0 678.2 202.0 682.8 202.2 684.0 201.2 684.0 199.0 682.8 197.8Z"/><path d="M713.9 225.9C713.2 225.7 712.1 225.4 711.6 225.3C707.7 224.3 706.5 222.5 708.5 220.6C709.7 219.6 710.7 219.4 712.0 220.1C715.3 221.9 718.4 221.9 720.2 219.9C722.0 218.1 720.8 215.2 717.9 214.5C717.4 214.3 716.4 214.0 715.8 213.7C715.2 213.5 714.6 213.2 714.4 213.2C713.9 213.2 711.2 212.0 710.3 211.3C706.7 208.5 707.6 201.0 711.8 199.0C714.4 197.7 714.8 197.6 718.2 197.6C725.0 197.6 727.7 199.5 724.9 202.4C723.7 203.7 722.9 203.8 721.7 202.9C720.8 202.3 716.9 202.0 715.4 202.5C713.3 203.2 713.2 207.2 715.2 207.7C715.6 207.8 716.3 208.0 716.8 208.3C717.2 208.5 718.0 208.8 718.5 208.9C724.3 210.0 728.1 214.4 726.9 218.6C726.7 219.3 726.5 220.2 726.4 220.5C726.0 222.3 723.1 224.8 721.0 225.3C720.4 225.4 719.3 225.7 718.6 225.9C717.2 226.3 715.5 226.3 713.9 225.9Z"/></g></svg>
